PathFileType	4	(X/Y/Z)	28_1_8_p0_0-220.trc
DataRate	CameraRate	NumFrames	NumMarkers	Units	OrigDataRate	OrigDataStartFrame	OrigNumFrames
60.0	60.0	5	27	m	60.0	82	221
Frame#	Time	RHip			RKnee			RAnkle			RBigToe			RSmallToe			RHeel			LHip			LKnee			LAnkle			LBigToe			LSmallToe			LHeel			Neck			Head			Nose			RShoulder			RElbow			RWrist			RThumb			RIndex			RPinky			LShoulder			LElbow			LWrist			LThumb			LIndex			LPinky			
		X1	Y1	Z1	X2	Y2	Z2	X3	Y3	Z3	X4	Y4	Z4	X5	Y5	Z5	X6	Y6	Z6	X7	Y7	Z7	X8	Y8	Z8	X9	Y9	Z9	X10	Y10	Z10	X11	Y11	Z11	X12	Y12	Z12	X13	Y13	Z13	X14	Y14	Z14	X15	Y15	Z15	X16	Y16	Z16	X17	Y17	Z17	X18	Y18	Z18	X19	Y19	Z19	X20	Y20	Z20	X21	Y21	Z21	X22	Y22	Z22	X23	Y23	Z23	X24	Y24	Z24	X25	Y25	Z25	X26	Y26	Z26	X27	Y27	Z27	
82	1.3666666666666667	0.20975753576390974	0.6701681368144508	1.028629828237983	0.2050484982159332	0.8740105250740952	1.4140471782141748	0.20323792780579505	1.0008032851978494	1.7516733438343546	0.18041799613947024	0.918004638953604	1.8222302290317456	0.23239390414179434	0.9112156446794358	1.810800693177514	0.19814786870423973	1.1141630354136611	1.7932749743589769	0.024472591411697203	0.682278543847904	1.0641668713244314	0.01788106491271389	0.8711813496491472	1.4067640010104048	0.010896481994153584	1.0569631444260428	1.7692714614156746	0.025537371111189314	0.9057830615331943	1.8174406581038014	-0.026701468003577353	0.933966920615405	1.8111326140357353	0.030172813206119208	1.093789748480952	1.801393371325989	0.06142222532689234	0.46885920926760627	0.5237346036991126	0.03966414048870716	0.3281057625296951	0.32007809949539584	0.04322348710555377	0.3421771508580919	0.43597971005049135	0.2064308596603309	0.49032546752202893	0.5799307675909282	0.2512651242254963	0.4860805427839104	0.8132979269497138	0.14003855663932296	0.48051135350330654	1.02151163539027	0.06789876721063173	0.5346703074560503	1.1046567194634944	0.07291955638761752	0.5531989061709135	1.1116939037902764	0.08551285168758176	0.5522364623334728	1.1117762422836233	-0.07942394676443663	0.5100419511085357	0.5926268129221147	-0.07595710257697519	0.5538416676998605	0.83620659580637	0.04250637121330996	0.4549762190501209	1.0199734720537994	0.12588073137704253	0.4571307576009034	1.0564094486608342	0.1268637383205906	0.4704659171414807	1.1013179695221118	0.08038117973281424	0.5272226066747225	1.1148905918226562
83	1.3833333333333333	0.20980348389644893	0.6702133476342093	1.0285097870389412	0.2051065338224284	0.8741507218813359	1.4140981239240227	0.20328371304229445	1.000811542660252	1.7517770087637685	0.1803225997682702	0.9177027904780857	1.8222111458329016	0.23232025247000854	0.9107615719373148	1.810809647086622	0.20227381928936394	1.0942722217854577	1.7936676553577215	0.024411129078277225	0.6821894116412457	1.0642070097482264	0.01783784562792236	0.8711260993961687	1.4068445406675973	0.009987364339767022	1.0587520115532052	1.7736341613567828	0.02559008225008954	0.9056593128705297	1.8175369021536127	-0.0266572149100511	0.9340045373580699	1.8111680622937907	0.03014971250647223	1.093512382850748	1.8013687786411106	0.057816211625021555	0.4570403324313138	0.5263590906388633	0.03925622807598747	0.32616479460260367	0.3174625519876033	0.043133743417049016	0.3420797393201982	0.4358931783467799	0.2057435152726635	0.4882292397274599	0.5767775695523286	0.2507217563440006	0.48533946908907133	0.8099744109662137	0.13945018657838723	0.4800190168125264	1.017762727466015	0.06389613035411615	0.521540451091773	1.1051452100855708	0.06910573652456815	0.5411832670553748	1.111920063856776	0.08554750979258229	0.5521641864607372	1.1118235334593418	-0.08611634546624561	0.4988839421318171	0.5986650903833685	-0.07594597816822193	0.5535717493678146	0.8363512166238147	0.04246451765742211	0.4550224658529406	1.019996519284009	0.126221153085909	0.4561002688928661	1.053000415405446	0.1274394209135414	0.46895755156901714	1.0977883970304392	0.0804651734508645	0.5269395192870391	1.1148308951470027
84	1.4	0.21538516431378657	0.6592419341215112	1.0328605766704537	0.2058895821051108	0.8768961613059865	1.414548298009573	0.20323878855178582	1.0011183218280142	1.7517733679067742	0.1810729248053096	0.9156797338292681	1.8179725261121675	0.23217827004764596	0.9111220821779109	1.8109444397048426	0.19858212165792585	1.1202779978741768	1.8026640060192685	0.025454005658572778	0.6847335453964852	1.0683216874961867	0.017528395733608135	0.870756890911154	1.4034004964032003	0.01004918443603486	1.058615308605439	1.7736627459351013	0.025601451739363495	0.9057644385206001	1.817412076478458	-0.026588750473508425	0.9340045020840977	1.8110774110988481	0.030180145622316017	1.093278799070318	1.8013606130818776	0.05776384113290155	0.45699022840834436	0.5264485029286593	0.03915334793315229	0.3262400382894232	0.317406884751595	0.03998376404996336	0.33250850383634506	0.44193317387035863	0.20542493345257856	0.4874337481952837	0.5732500551652775	0.24644691226005325	0.48597532007749866	0.8100393414825572	0.13931470516548275	0.48014948698343024	1.0177750753867656	0.06756754064972667	0.5344175408532401	1.1015305407999452	0.07284788011304814	0.5530374132366157	1.1116770166345509	0.08540698299422515	0.5526862536588146	1.1117505465996569	-0.08623319495071474	0.4990563861517053	0.5985915724378256	-0.07552703260432903	0.5534517075669169	0.8331043158932419	0.042875292602558956	0.4556088648898896	1.0232058315764623	0.12621715518402402	0.456489509508806	1.0564909240823572	0.12651497505753223	0.4666696156569687	1.09416308275367	0.07989311805960224	0.5269283690687628	1.1147195620574388
85	1.4166666666666667	0.21117059846961736	0.6715266994710838	1.028660952463547	0.20475361709683462	0.8735933210837035	1.410239678396501	0.2032123906218292	1.0009895279727572	1.751753558602899	0.17616193578251518	0.9026752141353831	1.8192963954970267	0.2320748368944622	0.9107260542021794	1.8109432639266065	0.19860050146071104	1.120315304012508	1.8027576299329235	0.026085576037232334	0.6832932372259228	1.0640513033549763	0.01789005198027344	0.8707239530928254	1.4068248564243735	0.010900705000352798	1.0565912178605483	1.7693429177972166	0.02559015567279003	0.9057896152301119	1.8174271144131846	-0.026541310869245	0.9341738122158019	1.8111014257390947	0.030178984535294905	1.0932273881274261	1.8012846196291448	0.053082237961341386	0.45373458799437816	0.5239997567248326	0.03945986364641953	0.3279464977830563	0.3201888240860277	0.04000029892389401	0.3323207016539768	0.4419971031329287	0.20534848099256467	0.48723326751615464	0.5730897115573877	0.24652665059915677	0.4847648895645385	0.8067950102434778	0.13554743385369095	0.46853768323709294	1.0182531841979856	0.06363090573344217	0.5208147086646459	1.1019361014929903	0.0690435530551845	0.5408422108604959	1.1119264301288365	0.08540893725224408	0.5525765360455132	1.1118254294923164	-0.08682396554988232	0.4969348330174661	0.5952379599331075	-0.07592445018596405	0.5530397399726779	0.8294465774643066	0.0423710951487081	0.4554450482209358	1.019883125390545	0.12599696051572734	0.4563605486782145	1.0529216458486923	0.12651767071841702	0.46675329156669676	1.0941119802476724	0.07627212312195401	0.5258445182557978	1.1148767027950173
86	1.4333333333333333	0.21256589008144047	0.6730398254300527	1.028627602720306	0.20595336869748007	0.8767381696684347	1.414431121362009	0.2032111195041523	1.0010295591894267	1.7518288242965356	0.18027214705963526	0.9176147619609334	1.8222594751616294	0.23223385265849553	0.9111032198836682	1.8109563099799753	0.1985814580070213	1.1203126947521784	1.8027644072299216	0.026579743945803827	0.681863889930341	1.0602838501370742	0.017956281369611846	0.8707868350323388	1.4068701679322373	0.01002184873577174	1.058556260199895	1.773709831277651	0.025603866085289233	0.9058953323177655	1.8175227294738583	-0.026570630556582434	0.9344894139530636	1.811222430411108	0.03016336314327002	1.0929707554068977	1.8013255068369913	0.05344909067481972	0.45544117675791435	0.5268605637433003	0.03937852180476851	0.3278476317609765	0.3202039488429649	0.039950425090970854	0.33217460029329193	0.4419184196555169	0.20503870790301282	0.48650852310613063	0.5695603729307732	0.2463877692726396	0.4845482845759709	0.8068346884627019	0.13540915960413166	0.46837138196320466	1.0181970738389619	0.06370913258955709	0.5205760302252489	1.101906946214955	0.06896428681109622	0.540593155208503	1.1120154523263066	0.08550670665354677	0.5524037016751852	1.1119491404551727	-0.08709998387073282	0.496369823577168	0.591603331496198	-0.07584610371614416	0.5536688107491703	0.829243360433847	0.042413759522889984	0.45573229648452124	1.0198290274292738	0.12612811430523047	0.45633058253724607	1.0527965304111935	0.12659300027632903	0.4666133465781009	1.0941005657206575	0.07626358978669397	0.5259141584950673	1.1148433313685744
